<svg width="72" height="18" viewBox="0 0 72 18" fill="none" xmlns="http://www.w3.org/2000/svg">
<path d="M21.0334 18L20.9834 0H16.1256L10.5668 9.59143L4.85772 0H0V18H5.38356V10.08L9.18961 16.38H11.7937L15.5998 9.79714L15.6499 18H21.0334Z" fill="white"/>
<path d="M23.8905 18H29.7999V0H23.8905V18Z" fill="white"/>
<path d="M44.163 0V8.17714L37.5024 0H32.6447V18H38.4038V9.82286L45.0644 18H49.9221V0H44.163Z" fill="white"/>
<path d="M65.8903 18H72L64.3378 0H58.5286L50.8664 18H56.876L58.0528 14.8629H64.7134L65.8903 18ZM59.6804 10.4914L61.3831 5.96571L63.0858 10.4914H59.6804Z" fill="white"/>
</svg>
